# This file uses centimeters as units for non-parametric coordinates.

mtllib ring_middle.mtl
g default
v 11.444595 0.000000 -3.718561
v 9.735344 0.000000 -7.073166
v 7.073166 0.000000 -9.735344
v 3.718561 0.000000 -11.444595
v -0.000000 0.000000 -12.033533
v -3.718561 0.000000 -11.444594
v -7.073166 0.000000 -9.735343
v -9.735342 0.000000 -7.073165
v -11.444594 0.000000 -3.718560
v -12.033532 0.000000 0.000000
v -11.444594 0.000000 3.718560
v -9.735342 0.000000 7.073165
v -7.073165 0.000000 9.735342
v -3.718560 0.000000 11.444594
v -0.000000 0.000000 12.033532
v 3.718560 0.000000 11.444594
v 7.073162 0.000000 9.735342
v 9.735342 0.000000 7.073162
v 11.444594 0.000000 3.718560
v 12.033531 0.000000 0.000000
v 11.444595 0.243778 -3.718561
v 9.735344 0.243778 -7.073166
v 7.073166 0.243778 -9.735344
v 3.718561 0.243778 -11.444595
v 0.000000 0.243778 -12.033533
v -3.718561 0.243778 -11.444594
v -7.073166 0.243778 -9.735343
v -9.735342 0.243778 -7.073165
v -11.444594 0.243778 -3.718560
v -12.033532 0.243778 -0.000000
v -11.444594 0.243778 3.718560
v -9.735342 0.243778 7.073165
v -7.073165 0.243778 9.735342
v -3.718560 0.243778 11.444594
v -0.000000 0.243778 12.033532
v 3.718560 0.243778 11.444594
v 7.073162 0.243778 9.735342
v 9.735342 0.243778 7.073162
v 11.444594 0.243778 3.718560
v 12.033531 0.243778 -0.000000
v 6.353295 0.000000 -2.064302
v 5.404430 0.000000 -3.926562
v 3.926561 0.000000 -5.404431
v 2.064303 0.000000 -6.353296
v -0.000000 0.000000 -6.680232
v -2.064302 0.000000 -6.353296
v -3.926562 0.000000 -5.404430
v -5.404430 0.000000 -3.926562
v -6.353296 0.000000 -2.064302
v -6.680232 0.000000 -0.000000
v -6.353296 0.000000 2.064301
v -5.404430 0.000000 3.926561
v -3.926562 0.000000 5.404429
v -2.064302 0.000000 6.353295
v -0.000000 0.000000 6.680231
v 2.064301 0.000000 6.353295
v 3.926559 0.000000 5.404429
v 5.404429 0.000000 3.926559
v 6.353295 0.000000 2.064301
v 6.680231 0.000000 -0.000000
v 6.353295 0.243778 -2.064302
v 5.404430 0.243778 -3.926562
v 3.926561 0.243778 -5.404431
v 2.064303 0.243778 -6.353296
v -0.000000 0.243778 -6.680232
v -2.064302 0.243778 -6.353296
v -3.926562 0.243778 -5.404430
v -5.404430 0.243778 -3.926562
v -6.353296 0.243778 -2.064302
v -6.680232 0.243778 -0.000000
v -6.353296 0.243778 2.064301
v -5.404430 0.243778 3.926561
v -3.926562 0.243778 5.404429
v -2.064302 0.243778 6.353295
v -0.000000 0.243778 6.680231
v 2.064301 0.243778 6.353295
v 3.926559 0.243778 5.404429
v 5.404429 0.243778 3.926559
v 6.353295 0.243778 2.064301
v 6.680231 0.243778 -0.000000
vt 2.535856 0.107966
vt 2.513662 0.064408
vt 2.479094 0.029841
vt 2.435536 0.007647
vt 2.387253 -0.000000
vt 2.338969 0.007647
vt 2.295411 0.029841
vt 2.260844 0.064409
vt 2.238650 0.107966
vt 2.231003 0.156250
vt 2.238650 0.204534
vt 2.260844 0.248091
vt 2.295411 0.282659
vt 2.338969 0.304853
vt 2.387253 0.312500
vt 2.435536 0.304853
vt 2.479094 0.282659
vt 2.513661 0.248091
vt 2.535855 0.204534
vt 2.543503 0.156250
vt 2.262253 0.312500
vt 2.274753 0.312500
vt 2.287253 0.312500
vt 2.299752 0.312500
vt 2.312253 0.312500
vt 2.324753 0.312500
vt 2.337253 0.312500
vt 2.349753 0.312500
vt 2.362252 0.312500
vt 2.374753 0.312500
vt 2.387253 0.312500
vt 2.399753 0.312500
vt 2.412252 0.312500
vt 2.424753 0.312500
vt 2.437253 0.312500
vt 2.449753 0.312500
vt 2.462253 0.312500
vt 2.474752 0.312500
vt 2.487252 0.312500
vt 2.499752 0.312500
vt 2.512253 0.312500
vt 2.262253 0.688440
vt 2.274753 0.688440
vt 2.287253 0.688440
vt 2.299752 0.688440
vt 2.312253 0.688440
vt 2.324753 0.688440
vt 2.337253 0.688440
vt 2.349753 0.688440
vt 2.362252 0.688440
vt 2.374753 0.688440
vt 2.387253 0.688440
vt 2.399753 0.688440
vt 2.412252 0.688440
vt 2.424753 0.688440
vt 2.437253 0.688440
vt 2.449753 0.688440
vt 2.462253 0.688440
vt 2.474752 0.688440
vt 2.487252 0.688440
vt 2.499752 0.688440
vt 2.512253 0.688440
vt 0.975529 0.654508
vt 0.904509 0.793894
vt 0.724557 0.663151
vt 0.763983 0.585773
vt 0.793894 0.904509
vt 0.663151 0.724557
vt 0.654508 0.975529
vt 0.585773 0.763983
vt 0.500000 1.000000
vt 0.500000 0.777567
vt 0.345492 0.975529
vt 0.414227 0.763983
vt 0.206106 0.904509
vt 0.336849 0.724557
vt 0.095491 0.793894
vt 0.275443 0.663151
vt 0.024471 0.654508
vt 0.236017 0.585773
vt 0.000000 0.500000
vt 0.222433 0.500000
vt 2.513662 0.064408
vt 2.535856 0.107966
vt 2.479094 0.029841
vt 2.435536 0.007647
vt 2.387253 -0.000000
vt 2.338969 0.007647
vt 2.295411 0.029841
vt 2.260844 0.064409
vt 2.238650 0.107966
vt 2.231003 0.156250
vt 2.238650 0.204534
vt 2.260844 0.248091
vt 2.295411 0.282659
vt 2.338969 0.304853
vt 2.387253 0.312500
vt 2.435536 0.304853
vt 2.479094 0.282659
vt 2.513661 0.248091
vt 2.535855 0.204534
vt 2.543503 0.156250
vt 2.082990 0.655817
vt 2.011368 0.796382
vt 1.899816 0.907935
vt 1.759251 0.979556
vt 1.603433 1.004235
vt 1.447616 0.979556
vt 1.307051 0.907935
vt 1.195498 0.796382
vt 1.123877 0.655817
vt 1.099198 0.500000
vt 1.123877 0.344183
vt 1.195498 0.203618
vt 1.307051 0.092065
vt 1.447616 0.020443
vt 1.603433 -0.004235
vt 1.759251 0.020443
vt 1.899816 0.092065
vt 2.011369 0.203618
vt 2.082990 0.344183
vt 2.107669 0.500000
vt 0.024471 0.345492
vt 0.236017 0.414227
vt 0.095491 0.206106
vt 0.275443 0.336849
vt 0.206106 0.095491
vt 0.336849 0.275443
vt 0.345492 0.024471
vt 0.414227 0.236017
vt 0.500000 0.000000
vt 0.500000 0.222433
vt 0.654508 0.024471
vt 0.585773 0.236017
vt 0.793894 0.095491
vt 0.663151 0.275443
vt 0.904509 0.206106
vt 0.724557 0.336849
vt 0.975529 0.345492
vt 0.763983 0.414227
vt 1.000000 0.500000
vt 0.777567 0.500000
vn 0.951057 -0.000000 -0.309014
vn 0.809018 0.000000 -0.587784
vn 0.809018 0.000000 -0.587784
vn 0.951057 -0.000000 -0.309014
vn 0.587784 0.000000 -0.809018
vn 0.587784 0.000000 -0.809018
vn 0.309014 0.000000 -0.951057
vn 0.309014 0.000000 -0.951057
vn -0.000000 0.000000 -1.000000
vn -0.000000 0.000000 -1.000000
vn -0.309014 0.000000 -0.951057
vn -0.309014 0.000000 -0.951057
vn -0.587784 0.000000 -0.809018
vn -0.587784 0.000000 -0.809018
vn -0.809018 0.000000 -0.587784
vn -0.809018 0.000000 -0.587784
vn -0.951057 0.000000 -0.309015
vn -0.951057 0.000000 -0.309015
vn -1.000000 0.000000 0.000000
vn -1.000000 0.000000 0.000000
vn -0.951057 0.000000 0.309015
vn -0.951057 0.000000 0.309015
vn -0.809018 0.000000 0.587784
vn -0.809018 0.000000 0.587784
vn -0.587784 0.000000 0.809018
vn -0.587784 0.000000 0.809018
vn -0.309015 0.000000 0.951057
vn -0.309015 0.000000 0.951057
vn 0.000000 0.000000 1.000000
vn 0.000000 0.000000 1.000000
vn 0.309015 0.000000 0.951057
vn 0.309015 0.000000 0.951057
vn 0.587784 0.000000 0.809018
vn 0.587784 0.000000 0.809018
vn 0.809018 0.000000 0.587784
vn 0.809018 0.000000 0.587784
vn 0.951057 0.000000 0.309015
vn 0.951057 0.000000 0.309015
vn 1.000000 -0.000000 0.000000
vn 1.000000 -0.000000 0.000000
vn 0.000000 -1.000000 0.000000
vn 0.000000 -1.000000 0.000000
vn 0.000000 -1.000000 0.000000
vn 0.000000 -1.000000 0.000000
vn 0.000000 -1.000000 0.000000
vn 0.000000 -1.000000 0.000000
vn 0.000000 -1.000000 0.000000
vn 0.000000 -1.000000 0.000000
vn 0.000000 -1.000000 0.000000
vn 0.000000 -1.000000 0.000000
vn 0.000000 -1.000000 0.000000
vn 0.000000 -1.000000 0.000000
vn 0.000000 -1.000000 -0.000000
vn 0.000000 -1.000000 -0.000000
vn 0.000000 -1.000000 -0.000000
vn 0.000000 -1.000000 -0.000000
vn 0.000000 -1.000000 0.000000
vn 0.000000 -1.000000 0.000000
vn 0.000000 -1.000000 0.000000
vn 0.000000 -1.000000 0.000000
vn 0.000000 -1.000000 0.000000
vn 0.000000 -1.000000 0.000000
vn 0.000000 -1.000000 0.000000
vn 0.000000 -1.000000 0.000000
vn 0.000000 -1.000000 0.000000
vn 0.000000 -1.000000 0.000000
vn 0.000000 -1.000000 0.000000
vn 0.000000 -1.000000 0.000000
vn 0.000000 -1.000000 0.000000
vn 0.000000 -1.000000 0.000000
vn 0.000000 -1.000000 0.000000
vn 0.000000 -1.000000 0.000000
vn 0.000000 -1.000000 0.000000
vn 0.000000 -1.000000 0.000000
vn 0.000000 -1.000000 0.000000
vn 0.000000 -1.000000 0.000000
vn 0.000000 -1.000000 0.000000
vn 0.000000 -1.000000 0.000000
vn 0.000000 -1.000000 0.000000
vn 0.000000 -1.000000 0.000000
vn 0.000000 -1.000000 0.000000
vn 0.000000 -1.000000 0.000000
vn 0.000000 -1.000000 0.000000
vn 0.000000 -1.000000 0.000000
vn 0.000000 -1.000000 0.000000
vn 0.000000 -1.000000 0.000000
vn 0.000000 -1.000000 0.000000
vn 0.000000 -1.000000 0.000000
vn 0.000000 -1.000000 0.000000
vn 0.000000 -1.000000 0.000000
vn 0.000000 -1.000000 0.000000
vn 0.000000 -1.000000 0.000000
vn 0.000000 -1.000000 -0.000000
vn 0.000000 -1.000000 -0.000000
vn 0.000000 -1.000000 -0.000000
vn 0.000000 -1.000000 -0.000000
vn 0.000000 -1.000000 0.000000
vn 0.000000 -1.000000 0.000000
vn 0.000000 -1.000000 0.000000
vn 0.000000 -1.000000 0.000000
vn 0.000000 -1.000000 0.000000
vn 0.000000 -1.000000 0.000000
vn 0.000000 -1.000000 0.000000
vn 0.000000 -1.000000 0.000000
vn 0.000000 -1.000000 0.000000
vn 0.000000 -1.000000 0.000000
vn 0.000000 -1.000000 0.000000
vn 0.000000 -1.000000 0.000000
vn 0.000000 -1.000000 0.000000
vn 0.000000 -1.000000 0.000000
vn 0.000000 -1.000000 0.000000
vn 0.000000 -1.000000 0.000000
vn 0.000000 -1.000000 0.000000
vn 0.000000 -1.000000 0.000000
vn 0.000000 -1.000000 0.000000
vn 0.000000 -1.000000 0.000000
vn 0.000000 -1.000000 0.000000
vn 0.000000 -1.000000 0.000000
vn 0.000000 -1.000000 0.000000
vn 0.000000 -1.000000 0.000000
vn 0.000000 1.000000 0.000000
vn 0.000000 1.000000 0.000000
vn 0.000000 1.000000 0.000000
vn 0.000000 1.000000 0.000000
vn 0.000000 1.000000 0.000000
vn 0.000000 1.000000 0.000000
vn 0.000000 1.000000 0.000000
vn 0.000000 1.000000 0.000000
vn 0.000000 1.000000 0.000000
vn 0.000000 1.000000 0.000000
vn 0.000000 1.000000 0.000000
vn 0.000000 1.000000 0.000000
vn 0.000000 1.000000 -0.000000
vn 0.000000 1.000000 -0.000000
vn 0.000000 1.000000 -0.000000
vn 0.000000 1.000000 -0.000000
vn 0.000000 1.000000 -0.000000
vn 0.000000 1.000000 -0.000000
vn 0.000000 1.000000 -0.000000
vn 0.000000 1.000000 -0.000000
vn 0.000000 1.000000 0.000000
vn 0.000000 1.000000 0.000000
vn 0.000000 1.000000 0.000000
vn 0.000000 1.000000 0.000000
vn 0.000000 1.000000 0.000000
vn 0.000000 1.000000 0.000000
vn 0.000000 1.000000 0.000000
vn 0.000000 1.000000 0.000000
vn 0.000000 1.000000 0.000000
vn 0.000000 1.000000 0.000000
vn 0.000000 1.000000 0.000000
vn 0.000000 1.000000 0.000000
vn 0.000000 1.000000 0.000000
vn 0.000000 1.000000 0.000000
vn 0.000000 1.000000 0.000000
vn 0.000000 1.000000 0.000000
vn 0.000000 1.000000 -0.000000
vn 0.000000 1.000000 -0.000000
vn 0.000000 1.000000 -0.000000
vn 0.000000 1.000000 -0.000000
vn 0.000000 1.000000 -0.000000
vn 0.000000 1.000000 -0.000000
vn 0.000000 1.000000 -0.000000
vn 0.000000 1.000000 -0.000000
vn 0.000000 1.000000 0.000000
vn 0.000000 1.000000 0.000000
vn 0.000000 1.000000 0.000000
vn 0.000000 1.000000 0.000000
vn 0.000000 1.000000 0.000000
vn 0.000000 1.000000 0.000000
vn 0.000000 1.000000 0.000000
vn 0.000000 1.000000 0.000000
vn 0.000000 1.000000 0.000000
vn 0.000000 1.000000 0.000000
vn 0.000000 1.000000 0.000000
vn 0.000000 1.000000 0.000000
vn 0.000000 1.000000 -0.000000
vn 0.000000 1.000000 -0.000000
vn 0.000000 1.000000 -0.000000
vn 0.000000 1.000000 -0.000000
vn 0.000000 1.000000 0.000000
vn 0.000000 1.000000 0.000000
vn 0.000000 1.000000 0.000000
vn 0.000000 1.000000 0.000000
vn 0.000000 1.000000 -0.000000
vn 0.000000 1.000000 -0.000000
vn 0.000000 1.000000 -0.000000
vn 0.000000 1.000000 -0.000000
vn 0.000000 1.000000 0.000000
vn 0.000000 1.000000 0.000000
vn 0.000000 1.000000 0.000000
vn 0.000000 1.000000 0.000000
vn 0.000000 1.000000 -0.000000
vn 0.000000 1.000000 -0.000000
vn 0.000000 1.000000 -0.000000
vn 0.000000 1.000000 -0.000000
vn 0.000000 1.000000 0.000000
vn 0.000000 1.000000 0.000000
vn 0.000000 1.000000 0.000000
vn 0.000000 1.000000 0.000000
vn -0.891007 0.000000 0.453989
vn -0.891007 0.000000 0.453989
vn -0.891007 0.000000 0.453989
vn -0.891007 0.000000 0.453989
vn -0.987690 0.000000 0.156426
vn -0.987690 0.000000 0.156426
vn -0.987690 0.000000 0.156426
vn -0.987690 0.000000 0.156426
vn -0.987690 0.000000 -0.156427
vn -0.987690 0.000000 -0.156427
vn -0.987690 0.000000 -0.156427
vn -0.987690 0.000000 -0.156427
vn -0.891007 0.000000 -0.453990
vn -0.891007 0.000000 -0.453990
vn -0.891007 0.000000 -0.453990
vn -0.891007 0.000000 -0.453990
vn -0.707107 0.000000 -0.707107
vn -0.707107 0.000000 -0.707107
vn -0.707107 0.000000 -0.707107
vn -0.707107 0.000000 -0.707107
vn -0.453990 0.000000 -0.891007
vn -0.453990 0.000000 -0.891007
vn -0.453990 0.000000 -0.891007
vn -0.453990 0.000000 -0.891007
vn -0.156427 0.000000 -0.987690
vn -0.156427 0.000000 -0.987690
vn -0.156427 0.000000 -0.987690
vn -0.156427 0.000000 -0.987690
vn 0.156427 0.000000 -0.987690
vn 0.156427 0.000000 -0.987690
vn 0.156427 0.000000 -0.987690
vn 0.156427 0.000000 -0.987690
vn 0.453989 0.000000 -0.891007
vn 0.453989 0.000000 -0.891007
vn 0.453989 0.000000 -0.891007
vn 0.453989 0.000000 -0.891007
vn 0.707107 0.000000 -0.707107
vn 0.707107 0.000000 -0.707107
vn 0.707107 0.000000 -0.707107
vn 0.707107 0.000000 -0.707107
vn 0.891007 0.000000 -0.453990
vn 0.891007 0.000000 -0.453990
vn 0.891007 0.000000 -0.453990
vn 0.891007 0.000000 -0.453990
vn 0.987690 0.000000 -0.156427
vn 0.987690 0.000000 -0.156427
vn 0.987690 0.000000 -0.156427
vn 0.987690 0.000000 -0.156427
vn 0.987690 0.000000 0.156427
vn 0.987690 0.000000 0.156427
vn 0.987690 0.000000 0.156427
vn 0.987690 0.000000 0.156427
vn 0.891007 0.000000 0.453990
vn 0.891007 0.000000 0.453990
vn 0.891007 0.000000 0.453990
vn 0.891007 0.000000 0.453990
vn 0.707107 0.000000 0.707107
vn 0.707107 0.000000 0.707107
vn 0.707107 0.000000 0.707107
vn 0.707107 0.000000 0.707107
vn 0.453989 0.000000 0.891007
vn 0.453989 0.000000 0.891007
vn 0.453989 0.000000 0.891007
vn 0.453989 0.000000 0.891007
vn 0.156427 0.000000 0.987690
vn 0.156427 0.000000 0.987690
vn 0.156427 0.000000 0.987690
vn 0.156427 0.000000 0.987690
vn -0.156426 0.000000 0.987690
vn -0.156426 0.000000 0.987690
vn -0.156426 0.000000 0.987690
vn -0.156426 0.000000 0.987690
vn -0.453989 0.000000 0.891007
vn -0.453989 0.000000 0.891007
vn -0.453989 0.000000 0.891007
vn -0.453989 0.000000 0.891007
vn -0.707107 0.000000 0.707107
vn -0.707107 0.000000 0.707107
vn -0.707107 0.000000 0.707107
vn -0.707107 0.000000 0.707107
s 1
g pCylinder1
usemtl lambert3SG
f 1/21/1 2/22/2 22/43/3 21/42/4
f 2/22/2 3/23/5 23/44/6 22/43/3
f 3/23/5 4/24/7 24/45/8 23/44/6
f 4/24/7 5/25/9 25/46/10 24/45/8
f 5/25/9 6/26/11 26/47/12 25/46/10
f 6/26/11 7/27/13 27/48/14 26/47/12
f 7/27/13 8/28/15 28/49/16 27/48/14
f 8/28/15 9/29/17 29/50/18 28/49/16
f 9/29/17 10/30/19 30/51/20 29/50/18
f 10/30/19 11/31/21 31/52/22 30/51/20
f 11/31/21 12/32/23 32/53/24 31/52/22
f 12/32/23 13/33/25 33/54/26 32/53/24
f 13/33/25 14/34/27 34/55/28 33/54/26
f 14/34/27 15/35/29 35/56/30 34/55/28
f 15/35/29 16/36/31 36/57/32 35/56/30
f 16/36/31 17/37/33 37/58/34 36/57/32
f 17/37/33 18/38/35 38/59/36 37/58/34
f 18/38/35 19/39/37 39/60/38 38/59/36
f 19/39/37 20/40/39 40/61/40 39/60/38
f 20/40/39 1/41/1 21/62/4 40/61/40
s off
f 2/2/41 1/1/42 41/84/43 42/83/44
f 3/3/45 2/2/46 42/83/47 43/85/48
f 4/4/49 3/3/50 43/85/51 44/86/52
f 5/5/53 4/4/54 44/86/55 45/87/56
f 6/6/57 5/5/58 45/87/59 46/88/60
f 7/7/61 6/6/62 46/88/63 47/89/64
f 8/8/65 7/7/66 47/89/67 48/90/68
f 9/9/69 8/8/70 48/90/71 49/91/72
f 10/10/73 9/9/74 49/91/75 50/92/76
f 11/11/77 10/10/78 50/92/79 51/93/80
f 12/12/81 11/11/82 51/93/83 52/94/84
f 13/13/85 12/12/86 52/94/87 53/95/88
f 14/14/89 13/13/90 53/95/91 54/96/92
f 15/15/93 14/14/94 54/96/95 55/97/96
f 16/16/97 15/15/98 55/97/99 56/98/100
f 17/17/101 16/16/102 56/98/103 57/99/104
f 18/18/105 17/17/106 57/99/107 58/100/108
f 19/19/109 18/18/110 58/100/111 59/101/112
f 20/20/113 19/19/114 59/101/115 60/102/116
f 1/1/117 20/20/118 60/102/119 41/84/120
usemtl lambert2SG
f 21/63/121 22/64/122 62/65/123 61/66/124
f 22/64/125 23/67/126 63/68/127 62/65/128
f 23/67/129 24/69/130 64/70/131 63/68/132
f 24/69/133 25/71/134 65/72/135 64/70/136
f 25/71/137 26/73/138 66/74/139 65/72/140
f 26/73/141 27/75/142 67/76/143 66/74/144
f 27/75/145 28/77/146 68/78/147 67/76/148
f 28/77/149 29/79/150 69/80/151 68/78/152
f 29/79/153 30/81/154 70/82/155 69/80/156
f 30/81/157 31/123/158 71/124/159 70/82/160
f 31/123/161 32/125/162 72/126/163 71/124/164
f 32/125/165 33/127/166 73/128/167 72/126/168
f 33/127/169 34/129/170 74/130/171 73/128/172
f 34/129/173 35/131/174 75/132/175 74/130/176
f 35/131/177 36/133/178 76/134/179 75/132/180
f 36/133/181 37/135/182 77/136/183 76/134/184
f 37/135/185 38/137/186 78/138/187 77/136/188
f 38/137/189 39/139/190 79/140/191 78/138/192
f 39/139/193 40/141/194 80/142/195 79/140/196
f 40/141/197 21/63/198 61/66/199 80/142/200
usemtl lambert3SG
f 42/83/201 41/84/202 61/103/203 62/104/204
f 41/84/205 60/102/206 80/122/207 61/103/208
f 60/102/209 59/101/210 79/121/211 80/122/212
f 59/101/213 58/100/214 78/120/215 79/121/216
f 58/100/217 57/99/218 77/119/219 78/120/220
f 57/99/221 56/98/222 76/118/223 77/119/224
f 56/98/225 55/97/226 75/117/227 76/118/228
f 55/97/229 54/96/230 74/116/231 75/117/232
f 54/96/233 53/95/234 73/115/235 74/116/236
f 53/95/237 52/94/238 72/114/239 73/115/240
f 52/94/241 51/93/242 71/113/243 72/114/244
f 51/93/245 50/92/246 70/112/247 71/113/248
f 50/92/249 49/91/250 69/111/251 70/112/252
f 49/91/253 48/90/254 68/110/255 69/111/256
f 48/90/257 47/89/258 67/109/259 68/110/260
f 47/89/261 46/88/262 66/108/263 67/109/264
f 46/88/265 45/87/266 65/107/267 66/108/268
f 45/87/269 44/86/270 64/106/271 65/107/272
f 44/86/273 43/85/274 63/105/275 64/106/276
f 43/85/277 42/83/278 62/104/279 63/105/280
