# This file uses centimeters as units for non-parametric coordinates.

mtllib ring_outer.mtl
g default
v 11.452053 0.000000 -3.720998
v 9.741698 0.000000 -7.077758
v 7.077757 0.000000 -9.741698
v 3.720997 0.000000 -11.452051
v -0.000001 0.000000 -12.041400
v -3.720998 0.000000 -11.452051
v -7.077757 0.000000 -9.741696
v -9.741696 0.000000 -7.077756
v -11.452048 0.000000 -3.720996
v -12.041397 0.000000 0.000000
v -11.452048 0.000000 3.720996
v -9.741694 0.000000 7.077755
v -7.077756 0.000000 9.741694
v -3.720997 0.000000 11.452048
v -0.000001 0.000000 12.041395
v 3.720994 0.000000 11.452047
v 7.077753 0.000000 9.741693
v 9.741691 0.000000 7.077754
v 11.452045 0.000000 3.720995
v 12.041393 0.000000 0.000000
v 11.452053 2.000000 -3.720998
v 9.741698 2.000000 -7.077758
v 7.077757 2.000000 -9.741698
v 3.720997 2.000000 -11.452051
v -0.000001 2.000000 -12.041400
v -3.720998 2.000000 -11.452051
v -7.077757 2.000000 -9.741696
v -9.741696 2.000000 -7.077756
v -11.452048 2.000000 -3.720996
v -12.041397 2.000000 0.000000
v -11.452048 2.000000 3.720996
v -9.741694 2.000000 7.077755
v -7.077756 2.000000 9.741694
v -3.720997 2.000000 11.452048
v -0.000001 2.000000 12.041395
v 3.720994 2.000000 11.452047
v 7.077753 2.000000 9.741693
v 9.741691 2.000000 7.077754
v 11.452045 2.000000 3.720995
v 12.041393 2.000000 0.000000
v 7.772068 0.000000 -2.525299
v 6.611316 0.000000 -4.803402
v 4.803402 0.000000 -6.611318
v 2.525298 0.000000 -7.772067
v -0.000000 0.000000 -8.172036
v -2.525298 0.000000 -7.772067
v -4.803401 0.000000 -6.611315
v -6.611315 0.000000 -4.803402
v -7.772067 0.000000 -2.525298
v -8.172033 0.000000 -0.000001
v -7.772067 0.000000 2.525297
v -6.611314 0.000000 4.803399
v -4.803401 0.000000 6.611313
v -2.525298 0.000000 7.772064
v -0.000001 0.000000 8.172031
v 2.525296 0.000000 7.772063
v 4.803399 0.000000 6.611313
v 6.611313 0.000000 4.803399
v 7.772064 0.000000 2.525296
v 8.172030 0.000000 -0.000001
v 7.772069 2.000000 -2.525299
v 6.611317 2.000000 -4.803402
v 4.803402 2.000000 -6.611318
v 2.525298 2.000000 -7.772067
v -0.000000 2.000000 -8.172036
v -2.525298 2.000000 -7.772067
v -4.803401 2.000000 -6.611315
v -6.611315 2.000000 -4.803402
v -7.772067 2.000000 -2.525298
v -8.172033 2.000000 -0.000001
v -7.772067 2.000000 2.525297
v -6.611314 2.000000 4.803399
v -4.803401 2.000000 6.611313
v -2.525298 2.000000 7.772064
v -0.000001 2.000000 8.172031
v 2.525296 2.000000 7.772063
v 4.803399 2.000000 6.611313
v 6.611313 2.000000 4.803399
v 7.772064 2.000000 2.525296
v 8.172030 2.000000 -0.000001
vt 1.981952 0.662375
vt 1.959758 0.618818
vt 1.925190 0.584250
vt 1.881633 0.562057
vt 1.833349 0.554409
vt 1.785065 0.562057
vt 1.741508 0.584250
vt 1.706940 0.618818
vt 1.684746 0.662375
vt 1.677099 0.710659
vt 1.684746 0.758943
vt 1.706940 0.802501
vt 1.741508 0.837068
vt 1.785065 0.859262
vt 1.833349 0.866909
vt 1.881633 0.859262
vt 1.925190 0.837068
vt 1.959758 0.802501
vt 1.981952 0.758943
vt 1.989599 0.710659
vt 0.972656 0.651636
vt 1.720849 0.866909
vt 1.733349 0.866909
vt 1.745849 0.866909
vt 1.758349 0.866909
vt 1.770849 0.866909
vt 1.783349 0.866909
vt 1.795849 0.866909
vt 1.808349 0.866909
vt 1.820849 0.866909
vt 1.833349 0.866909
vt 1.845849 0.866909
vt 1.858349 0.866909
vt 1.870849 0.866909
vt 1.883349 0.866909
vt 1.895849 0.866909
vt 1.908349 0.866909
vt 1.920849 0.866909
vt 1.933349 0.866909
vt 1.945849 0.866909
vt 1.958349 0.866909
vt 0.901636 0.791020
vt 1.720849 1.242849
vt 1.733349 1.242849
vt 1.745849 1.242849
vt 1.758349 1.242849
vt 1.770849 1.242849
vt 1.783349 1.242849
vt 1.795849 1.242849
vt 1.808349 1.242849
vt 1.820849 1.242849
vt 1.833349 1.242849
vt 1.845849 1.242849
vt 1.858349 1.242849
vt 1.870849 1.242849
vt 1.883349 1.242849
vt 1.895849 1.242849
vt 1.908349 1.242849
vt 1.920849 1.242849
vt 1.933349 1.242849
vt 1.945849 1.242849
vt 1.958349 1.242849
vt 0.901636 0.791020
vt 0.972656 0.651636
vt 0.791020 0.901636
vt 0.651636 0.972656
vt 0.651636 0.972656
vt 0.791020 0.901636
vt 0.000000 0.500000
vt 0.024472 0.654508
vt 0.177277 0.604859
vt 0.160669 0.500000
vt 0.771652 0.696581
vt 0.819851 0.601986
vt 0.696581 0.771652
vt 0.601987 0.819850
vt 0.497128 0.997127
vt 0.497128 0.836458
vt 0.342619 0.972656
vt 0.392268 0.819850
vt 0.203235 0.901636
vt 0.297674 0.771652
vt 1.959758 0.618818
vt 1.981952 0.662375
vt 1.925190 0.584250
vt 1.881633 0.562057
vt 1.833349 0.554409
vt 1.785065 0.562057
vt 1.741508 0.584250
vt 1.706940 0.618818
vt 1.684746 0.662375
vt 1.677099 0.710659
vt 1.684746 0.758943
vt 1.706940 0.802501
vt 1.741508 0.837068
vt 1.785065 0.859262
vt 1.833349 0.866909
vt 1.881633 0.859262
vt 1.925190 0.837068
vt 1.959758 0.802501
vt 1.981952 0.758943
vt 1.989599 0.710659
vt 0.642857 1.446443
vt 0.620664 1.490001
vt 0.586096 1.524568
vt 0.542539 1.546762
vt 0.494255 1.554409
vt 0.445971 1.546762
vt 0.402413 1.524568
vt 0.367846 1.490001
vt 0.345652 1.446443
vt 0.338005 1.398159
vt 0.345652 1.349875
vt 0.367846 1.306318
vt 0.402413 1.271750
vt 0.445971 1.249557
vt 0.494255 1.241909
vt 0.542539 1.249557
vt 0.586096 1.271750
vt 0.620664 1.306318
vt 0.642857 1.349875
vt 0.650505 1.398159
vt 0.092619 0.791020
vt 0.222603 0.696581
vt 0.021599 0.651636
vt 0.174405 0.601986
vt -0.002873 0.497127
vt 0.157797 0.497127
vt 0.021599 0.342619
vt 0.174405 0.392268
vt 0.092619 0.203235
vt 0.222603 0.297674
vt 0.203235 0.092619
vt 0.297674 0.222603
vt 0.342619 0.021599
vt 0.392268 0.174405
vt 0.497128 -0.002873
vt 0.497128 0.157797
vt 0.651636 0.021599
vt 0.601987 0.174405
vt 0.791020 0.092619
vt 0.696581 0.222603
vt 0.901636 0.203235
vt 0.771652 0.297674
vt 0.972656 0.342619
vt 0.819850 0.392268
vt 0.997128 0.497127
vt 0.836458 0.497127
vn 0.951057 0.000000 -0.309016
vn 0.809017 0.000000 -0.587785
vn 0.809017 0.000000 -0.587785
vn 0.951057 0.000000 -0.309016
vn 0.587785 0.000000 -0.809017
vn 0.587785 0.000000 -0.809017
vn 0.309017 0.000000 -0.951057
vn 0.309017 0.000000 -0.951057
vn 0.000000 0.000000 -1.000000
vn 0.000000 0.000000 -1.000000
vn -0.309017 0.000000 -0.951056
vn -0.309017 0.000000 -0.951056
vn -0.587785 0.000000 -0.809017
vn -0.587785 0.000000 -0.809017
vn -0.809017 0.000000 -0.587785
vn -0.809017 0.000000 -0.587785
vn -0.951057 0.000000 -0.309017
vn -0.951057 0.000000 -0.309017
vn -1.000000 0.000000 0.000000
vn -1.000000 0.000000 0.000000
vn -0.951056 0.000000 0.309017
vn -0.951056 0.000000 0.309017
vn -0.809017 0.000000 0.587785
vn -0.809017 0.000000 0.587785
vn -0.587785 0.000000 0.809017
vn -0.587785 0.000000 0.809017
vn -0.309017 0.000000 0.951057
vn -0.309017 0.000000 0.951057
vn 0.000000 0.000000 1.000000
vn 0.000000 0.000000 1.000000
vn 0.309017 0.000000 0.951056
vn 0.309017 0.000000 0.951056
vn 0.587785 0.000000 0.809017
vn 0.587785 0.000000 0.809017
vn 0.809017 0.000000 0.587785
vn 0.809017 0.000000 0.587785
vn 0.951056 0.000000 0.309017
vn 0.951056 0.000000 0.309017
vn 1.000000 0.000000 0.000001
vn 1.000000 0.000000 0.000001
vn 0.000000 -1.000000 0.000000
vn 0.000000 -1.000000 0.000000
vn 0.000000 -1.000000 0.000000
vn 0.000000 -1.000000 0.000000
vn 0.000000 -1.000000 0.000000
vn 0.000000 -1.000000 0.000000
vn 0.000000 -1.000000 0.000000
vn 0.000000 -1.000000 0.000000
vn 0.000000 -1.000000 0.000000
vn 0.000000 -1.000000 0.000000
vn 0.000000 -1.000000 0.000000
vn 0.000000 -1.000000 0.000000
vn 0.000000 -1.000000 -0.000000
vn 0.000000 -1.000000 -0.000000
vn 0.000000 -1.000000 -0.000000
vn 0.000000 -1.000000 -0.000000
vn 0.000000 -1.000000 0.000000
vn 0.000000 -1.000000 0.000000
vn 0.000000 -1.000000 0.000000
vn 0.000000 -1.000000 0.000000
vn 0.000000 -1.000000 0.000000
vn 0.000000 -1.000000 0.000000
vn 0.000000 -1.000000 0.000000
vn 0.000000 -1.000000 0.000000
vn 0.000000 -1.000000 0.000000
vn 0.000000 -1.000000 0.000000
vn 0.000000 -1.000000 0.000000
vn 0.000000 -1.000000 0.000000
vn 0.000000 -1.000000 0.000000
vn 0.000000 -1.000000 0.000000
vn 0.000000 -1.000000 0.000000
vn 0.000000 -1.000000 0.000000
vn 0.000000 -1.000000 0.000000
vn 0.000000 -1.000000 0.000000
vn 0.000000 -1.000000 0.000000
vn 0.000000 -1.000000 0.000000
vn 0.000000 -1.000000 0.000000
vn 0.000000 -1.000000 0.000000
vn 0.000000 -1.000000 0.000000
vn 0.000000 -1.000000 0.000000
vn 0.000000 -1.000000 0.000000
vn 0.000000 -1.000000 0.000000
vn 0.000000 -1.000000 0.000000
vn 0.000000 -1.000000 0.000000
vn 0.000000 -1.000000 0.000000
vn 0.000000 -1.000000 0.000000
vn 0.000000 -1.000000 0.000000
vn 0.000000 -1.000000 0.000000
vn 0.000000 -1.000000 0.000000
vn 0.000000 -1.000000 0.000000
vn 0.000000 -1.000000 0.000000
vn 0.000000 -1.000000 0.000000
vn 0.000000 -1.000000 -0.000000
vn 0.000000 -1.000000 -0.000000
vn 0.000000 -1.000000 -0.000000
vn 0.000000 -1.000000 -0.000000
vn 0.000000 -1.000000 0.000000
vn 0.000000 -1.000000 0.000000
vn 0.000000 -1.000000 0.000000
vn 0.000000 -1.000000 0.000000
vn 0.000000 -1.000000 0.000000
vn 0.000000 -1.000000 0.000000
vn 0.000000 -1.000000 0.000000
vn 0.000000 -1.000000 0.000000
vn 0.000000 -1.000000 0.000000
vn 0.000000 -1.000000 0.000000
vn 0.000000 -1.000000 0.000000
vn 0.000000 -1.000000 0.000000
vn 0.000000 -1.000000 0.000000
vn 0.000000 -1.000000 0.000000
vn 0.000000 -1.000000 0.000000
vn 0.000000 -1.000000 0.000000
vn 0.000000 -1.000000 0.000000
vn 0.000000 -1.000000 0.000000
vn 0.000000 -1.000000 0.000000
vn 0.000000 -1.000000 0.000000
vn 0.000000 -1.000000 0.000000
vn 0.000000 -1.000000 0.000000
vn 0.000000 -1.000000 0.000000
vn 0.000000 -1.000000 0.000000
vn 0.000000 1.000000 0.000000
vn 0.000000 1.000000 0.000000
vn 0.000000 1.000000 0.000000
vn 0.000000 1.000000 0.000000
vn 0.000000 1.000000 0.000000
vn 0.000000 1.000000 0.000000
vn 0.000000 1.000000 0.000000
vn 0.000000 1.000000 0.000000
vn 0.000000 1.000000 0.000000
vn 0.000000 1.000000 0.000000
vn 0.000000 1.000000 0.000000
vn 0.000000 1.000000 0.000000
vn 0.000000 1.000000 -0.000000
vn 0.000000 1.000000 -0.000000
vn 0.000000 1.000000 -0.000000
vn 0.000000 1.000000 -0.000000
vn 0.000000 1.000000 0.000000
vn 0.000000 1.000000 0.000000
vn 0.000000 1.000000 0.000000
vn 0.000000 1.000000 0.000000
vn 0.000000 1.000000 0.000000
vn 0.000000 1.000000 0.000000
vn 0.000000 1.000000 0.000000
vn 0.000000 1.000000 0.000000
vn 0.000000 1.000000 0.000000
vn 0.000000 1.000000 0.000000
vn 0.000000 1.000000 0.000000
vn 0.000000 1.000000 0.000000
vn 0.000000 1.000000 0.000000
vn 0.000000 1.000000 0.000000
vn 0.000000 1.000000 0.000000
vn 0.000000 1.000000 0.000000
vn 0.000000 1.000000 0.000000
vn 0.000000 1.000000 0.000000
vn 0.000000 1.000000 0.000000
vn 0.000000 1.000000 0.000000
vn 0.000000 1.000000 0.000000
vn 0.000000 1.000000 0.000000
vn 0.000000 1.000000 0.000000
vn 0.000000 1.000000 0.000000
vn 0.000000 1.000000 0.000000
vn 0.000000 1.000000 0.000000
vn 0.000000 1.000000 0.000000
vn 0.000000 1.000000 0.000000
vn 0.000000 1.000000 0.000000
vn 0.000000 1.000000 0.000000
vn 0.000000 1.000000 0.000000
vn 0.000000 1.000000 0.000000
vn 0.000000 1.000000 0.000000
vn 0.000000 1.000000 0.000000
vn 0.000000 1.000000 0.000000
vn 0.000000 1.000000 0.000000
vn 0.000000 1.000000 0.000000
vn 0.000000 1.000000 0.000000
vn 0.000000 1.000000 0.000000
vn 0.000000 1.000000 0.000000
vn 0.000000 1.000000 0.000000
vn 0.000000 1.000000 0.000000
vn 0.000000 1.000000 0.000000
vn 0.000000 1.000000 0.000000
vn 0.000000 1.000000 0.000000
vn 0.000000 1.000000 0.000000
vn 0.000000 1.000000 0.000000
vn 0.000000 1.000000 0.000000
vn 0.000000 1.000000 0.000000
vn 0.000000 1.000000 0.000000
vn 0.000000 1.000000 0.000000
vn 0.000000 1.000000 0.000000
vn 0.000000 1.000000 0.000000
vn 0.000000 1.000000 0.000000
vn 0.000000 1.000000 0.000000
vn 0.000000 1.000000 0.000000
vn 0.000000 1.000000 0.000000
vn 0.000000 1.000000 0.000000
vn 0.000000 1.000000 0.000000
vn 0.000000 1.000000 0.000000
vn 0.000000 1.000000 0.000000
vn 0.000000 1.000000 0.000000
vn 0.000000 1.000000 0.000000
vn 0.000000 1.000000 0.000000
vn -0.891006 0.000000 0.453991
vn -0.891006 0.000000 0.453991
vn -0.891006 0.000000 0.453991
vn -0.891006 0.000000 0.453991
vn -0.987689 0.000000 0.156432
vn -0.987689 0.000000 0.156432
vn -0.987689 0.000000 0.156432
vn -0.987689 0.000000 0.156432
vn -0.987688 0.000000 -0.156434
vn -0.987688 0.000000 -0.156434
vn -0.987688 0.000000 -0.156434
vn -0.987688 0.000000 -0.156434
vn -0.891007 0.000000 -0.453990
vn -0.891007 0.000000 -0.453990
vn -0.891007 0.000000 -0.453990
vn -0.891007 0.000000 -0.453990
vn -0.707107 0.000000 -0.707107
vn -0.707107 0.000000 -0.707107
vn -0.707107 0.000000 -0.707107
vn -0.707107 0.000000 -0.707107
vn -0.453990 0.000000 -0.891007
vn -0.453990 0.000000 -0.891007
vn -0.453990 0.000000 -0.891007
vn -0.453990 0.000000 -0.891007
vn -0.156435 0.000000 -0.987688
vn -0.156435 0.000000 -0.987688
vn -0.156435 0.000000 -0.987688
vn -0.156435 0.000000 -0.987688
vn 0.156434 0.000000 -0.987688
vn 0.156434 0.000000 -0.987688
vn 0.156434 0.000000 -0.987688
vn 0.156434 0.000000 -0.987688
vn 0.453990 0.000000 -0.891007
vn 0.453990 0.000000 -0.891007
vn 0.453990 0.000000 -0.891007
vn 0.453990 0.000000 -0.891007
vn 0.707107 0.000000 -0.707107
vn 0.707107 0.000000 -0.707107
vn 0.707107 0.000000 -0.707107
vn 0.707107 0.000000 -0.707107
vn 0.891006 0.000000 -0.453991
vn 0.891006 0.000000 -0.453991
vn 0.891006 0.000000 -0.453991
vn 0.891006 0.000000 -0.453991
vn 0.987688 0.000000 -0.156434
vn 0.987688 0.000000 -0.156434
vn 0.987688 0.000000 -0.156434
vn 0.987688 0.000000 -0.156434
vn 0.987688 0.000000 0.156434
vn 0.987688 0.000000 0.156434
vn 0.987688 0.000000 0.156434
vn 0.987688 0.000000 0.156434
vn 0.891007 0.000000 0.453990
vn 0.891007 0.000000 0.453990
vn 0.891007 0.000000 0.453990
vn 0.891007 0.000000 0.453990
vn 0.707107 0.000000 0.707107
vn 0.707107 0.000000 0.707107
vn 0.707107 0.000000 0.707107
vn 0.707107 0.000000 0.707107
vn 0.453991 0.000000 0.891006
vn 0.453991 0.000000 0.891006
vn 0.453991 0.000000 0.891006
vn 0.453991 0.000000 0.891006
vn 0.156435 0.000000 0.987688
vn 0.156435 0.000000 0.987688
vn 0.156435 0.000000 0.987688
vn 0.156435 0.000000 0.987688
vn -0.156435 0.000000 0.987688
vn -0.156435 0.000000 0.987688
vn -0.156435 0.000000 0.987688
vn -0.156435 0.000000 0.987688
vn -0.453990 0.000000 0.891007
vn -0.453990 0.000000 0.891007
vn -0.453990 0.000000 0.891007
vn -0.453990 0.000000 0.891007
vn -0.707107 0.000000 0.707107
vn -0.707107 0.000000 0.707107
vn -0.707107 0.000000 0.707107
vn -0.707107 0.000000 0.707107
s 1
g pCylinder1
usemtl lambert3SG
f 1/21/1 2/42/2 22/63/3 21/64/4
f 2/22/2 3/23/5 23/44/6 22/43/3
f 3/65/5 4/66/7 24/67/8 23/68/6
f 4/24/7 5/25/9 25/46/10 24/45/8
f 5/25/9 6/26/11 26/47/12 25/46/10
f 6/26/11 7/27/13 27/48/14 26/47/12
f 7/27/13 8/28/15 28/49/16 27/48/14
f 8/28/15 9/29/17 29/50/18 28/49/16
f 9/29/17 10/30/19 30/51/20 29/50/18
f 10/30/19 11/31/21 31/52/22 30/51/20
f 11/31/21 12/32/23 32/53/24 31/52/22
f 12/32/23 13/33/25 33/54/26 32/53/24
f 13/33/25 14/34/27 34/55/28 33/54/26
f 14/34/27 15/35/29 35/56/30 34/55/28
f 15/35/29 16/36/31 36/57/32 35/56/30
f 16/36/31 17/37/33 37/58/34 36/57/32
f 17/37/33 18/38/35 38/59/36 37/58/34
f 18/38/35 19/39/37 39/60/38 38/59/36
f 19/39/37 20/40/39 40/61/40 39/60/38
f 20/40/39 1/41/1 21/62/4 40/61/40
s off
f 2/2/41 1/1/42 41/84/43 42/83/44
f 3/3/45 2/2/46 42/83/47 43/85/48
f 4/4/49 3/3/50 43/85/51 44/86/52
f 5/5/53 4/4/54 44/86/55 45/87/56
f 6/6/57 5/5/58 45/87/59 46/88/60
f 7/7/61 6/6/62 46/88/63 47/89/64
f 8/8/65 7/7/66 47/89/67 48/90/68
f 9/9/69 8/8/70 48/90/71 49/91/72
f 10/69/73 9/70/74 49/71/75 50/72/76
f 11/11/77 10/10/78 50/92/79 51/93/80
f 12/12/81 11/11/82 51/93/83 52/94/84
f 13/13/85 12/12/86 52/94/87 53/95/88
f 14/14/89 13/13/90 53/95/91 54/96/92
f 15/15/93 14/14/94 54/96/95 55/97/96
f 16/16/97 15/15/98 55/97/99 56/98/100
f 17/17/101 16/16/102 56/98/103 57/99/104
f 18/18/105 17/17/106 57/99/107 58/100/108
f 19/19/109 18/18/110 58/100/111 59/101/112
f 20/20/113 19/19/114 59/101/115 60/102/116
f 1/1/117 20/20/118 60/102/119 41/84/120
usemtl lambert2SG
f 21/64/121 22/63/122 62/73/123 61/74/124
f 22/63/125 23/68/126 63/75/127 62/73/128
f 23/68/129 24/67/130 64/76/131 63/75/132
f 24/67/133 25/77/134 65/78/135 64/76/136
f 25/77/137 26/79/138 66/80/139 65/78/140
f 26/79/141 27/81/142 67/82/143 66/80/144
f 27/81/145 28/123/146 68/124/147 67/82/148
f 28/123/149 29/125/150 69/126/151 68/124/152
f 29/125/153 30/127/154 70/128/155 69/126/156
f 30/127/157 31/129/158 71/130/159 70/128/160
f 31/129/161 32/131/162 72/132/163 71/130/164
f 32/131/165 33/133/166 73/134/167 72/132/168
f 33/133/169 34/135/170 74/136/171 73/134/172
f 34/135/173 35/137/174 75/138/175 74/136/176
f 35/137/177 36/139/178 76/140/179 75/138/180
f 36/139/181 37/141/182 77/142/183 76/140/184
f 37/141/185 38/143/186 78/144/187 77/142/188
f 38/143/189 39/145/190 79/146/191 78/144/192
f 39/145/193 40/147/194 80/148/195 79/146/196
f 40/147/197 21/64/198 61/74/199 80/148/200
usemtl lambert3SG
f 42/83/201 41/84/202 61/103/203 62/104/204
f 41/84/205 60/102/206 80/122/207 61/103/208
f 60/102/209 59/101/210 79/121/211 80/122/212
f 59/101/213 58/100/214 78/120/215 79/121/216
f 58/100/217 57/99/218 77/119/219 78/120/220
f 57/99/221 56/98/222 76/118/223 77/119/224
f 56/98/225 55/97/226 75/117/227 76/118/228
f 55/97/229 54/96/230 74/116/231 75/117/232
f 54/96/233 53/95/234 73/115/235 74/116/236
f 53/95/237 52/94/238 72/114/239 73/115/240
f 52/94/241 51/93/242 71/113/243 72/114/244
f 51/93/245 50/92/246 70/112/247 71/113/248
f 50/92/249 49/91/250 69/111/251 70/112/252
f 49/91/253 48/90/254 68/110/255 69/111/256
f 48/90/257 47/89/258 67/109/259 68/110/260
f 47/89/261 46/88/262 66/108/263 67/109/264
f 46/88/265 45/87/266 65/107/267 66/108/268
f 45/87/269 44/86/270 64/106/271 65/107/272
f 44/86/273 43/85/274 63/105/275 64/106/276
f 43/85/277 42/83/278 62/104/279 63/105/280
